<svg width="1175" height="785" viewBox="0 0 1175 785" fill="none" xmlns="http://www.w3.org/2000/svg">
<path d="M265.776 7.63311C268.005 5.95155 269.312 5.48196 272.157 5.3661C283.661 4.89767 295.572 5.16685 307.09 5.23188L367.646 5.45108C388.573 5.51524 409.578 5.20098 430.479 5.45274C440.173 5.56951 453.644 5.56151 463.036 6.85259C493.638 11.0836 521.265 27.414 539.726 52.1852C552.581 69.2559 560.365 87.383 569.838 106.143L603.803 173.474L724.185 411.712L760.268 483.488C765.474 493.762 770.302 504.509 776.156 514.382C776.682 517.366 788.004 538.853 790.152 543.124L821.408 605.598C832.288 626.963 842.585 648.692 853.388 670.144C872.129 706.613 890.453 743.292 908.347 780.177C906.045 780.985 900.288 781.306 897.646 781.312C860.037 781.363 822.337 781.165 784.734 781.171L736.584 781.28C713.446 781.197 703.219 781.216 680.991 772.298C660.647 764.085 643.131 750.133 630.584 732.143C625.914 725.578 621.208 717.493 617.503 710.267C589.499 655.635 562.411 600.528 534.834 545.68L443.405 363.663L416.69 310.441C411.432 300.111 404.108 286.774 399.649 276.368C399.02 273.306 389.558 255.255 387.759 251.724L368.249 212.805L335.32 146.168C330.493 136.557 324.635 124.07 319.216 114.995L282.97 40.6702C278.745 32.0512 271.1 14.2641 265.776 7.63311Z" fill="#FEFEFE"/>
<path d="M265.728 7.65918C271.051 14.2902 278.696 32.0773 282.921 40.6963L319.168 115.021C324.587 124.096 330.445 136.583 335.271 146.194L368.2 212.832L387.71 251.75C389.509 255.281 398.971 273.333 399.6 276.395C396.7 278.689 385.457 308.157 383.44 313.23C373.739 337.621 362.131 361.65 352.389 385.923C348.972 392.259 346.343 399.246 343.518 405.884C321.32 458.026 296.11 509.581 275.169 562.231C288.744 562.965 302.825 562.454 316.415 562.723C348.322 563.357 381.335 562.074 413.124 562.585C427.418 562.473 452.622 560.718 464.645 565.908C468.429 573.009 470.48 578.38 467.628 586.744C465.061 594.277 455.513 611.952 450.968 618.09C435.049 647.16 418.676 676.197 402.118 704.908C388.355 728.771 365.124 782.294 331.891 781.3C329.532 781.531 326.747 781.492 324.358 781.531C302.046 781.896 279.677 780.967 257.382 781.037C230.076 781.262 202.769 781.332 175.463 781.255C162.019 781.236 145.131 781.973 131.997 780.364C76.5414 773.581 30.9867 737.433 13.0667 684.237C3.39628 655.623 1.97691 624.861 8.97096 595.475C12.787 579.526 18.6239 568.383 24.9207 553.623C46.5674 502.881 69.3208 452.333 91.5948 401.874L172.006 219.987L197.74 160.451C202.297 149.824 207.895 135.924 212.99 125.685C216.395 118.702 218.897 110.555 222.372 103.529C237.778 72.3852 248.866 37.9311 265.728 7.65918Z" fill="url(#paint0_linear_1848_4941)"/>
<path d="M331.912 781.252C325.697 779.149 323.134 775.809 317.204 770.859C317.204 770.859 305.809 759.364 301.808 751.849C290.701 730.986 279.224 710.322 268.586 689.203C263.576 679.259 257.743 669.559 253.313 659.319C251.011 654.113 249.324 648.651 248.288 643.054C247.382 637.903 247.007 629.618 248.27 624.753C251.433 612.57 269.299 570.634 275.19 562.184C288.765 562.918 302.846 562.406 316.436 562.675C348.343 563.309 381.356 562.026 413.145 562.537C427.439 562.425 452.643 560.67 464.666 565.86C468.449 572.961 470.5 578.332 467.649 586.696C465.082 594.229 455.534 611.904 450.989 618.042C435.07 647.112 418.697 676.149 402.139 704.86C388.376 728.723 365.144 782.246 331.912 781.252Z" fill="url(#paint1_linear_1848_4941)"/>
<path d="M265.767 7.65918C271.09 14.2902 278.735 32.0773 282.96 40.6963L319.207 115.021C324.626 124.096 330.484 136.583 335.31 146.194L368.239 212.832L378.29 232.167L400.082 276.735C371.871 235.702 282.96 151.383 282.96 151.383L222.411 103.529C237.817 72.3852 248.904 37.9311 265.767 7.65918Z" fill="#6A32B3"/>
<path d="M850.085 6.14358C895.395 6.56141 941.057 5.3743 986.29 5.87596C1005.59 6.59391 1025.89 4.59555 1045.06 6.70957C1121.98 15.1921 1171.93 86.75 1170.07 161.266C1169.26 193.924 1159.16 213.666 1146.16 242.754L1119.55 302.637C1107.16 330.96 1095.32 359.669 1082.24 387.721C1079.1 394.44 1074.97 405.909 1071.39 411.601L1070.32 410.722C1067.93 409.498 1063.28 410.155 1063.41 410.155C1062.78 407.355 1064.66 392.662 1064.85 388.634C1066.84 345.689 1061.97 300.188 1033.53 266.04C1013.63 242.141 972.595 226.578 942.525 224.604C930.247 223.798 916.52 224.349 904.095 223.954C903.076 223.921 903.108 223.555 902.236 222.538L901.197 224.014C858.157 224.401 815.111 224.498 772.071 224.306C756.574 224.18 740.866 224.618 725.383 224.312C699.339 223.737 701.077 206.377 710.803 188.151C720.08 170.776 730.64 154.168 740.097 136.988C754.721 109.983 769.73 83.1859 785.112 56.6053C790.805 46.7334 797.896 31.6663 805.891 23.9491C817.912 12.3498 833.037 4.98815 850.085 6.14358Z" fill="#FEFEFE"/>
<path d="M901.197 224.062C858.157 224.449 815.111 224.546 772.071 224.353C756.574 224.228 740.866 224.666 725.383 224.36C699.339 223.785 701.077 206.424 710.803 188.199C720.08 170.824 730.64 154.215 740.097 137.036C754.721 110.031 769.73 83.2338 785.112 56.6531C790.805 46.7813 797.896 31.7142 805.891 23.997C817.912 12.3977 833.037 5.03601 850.085 6.19144C858.683 11.1613 860.279 15.8007 865.928 24.4005C869.492 29.5824 877.699 43.7588 880.007 49.2475C892.638 79.2895 929.151 125.846 926.682 158.03C924.368 177.314 912.186 195.163 905.8 213.426C904.896 216.011 903.364 220.106 902.236 222.586L901.197 224.062Z" fill="url(#paint2_linear_1848_4941)"/>
<path d="M901.216 224.101L902.255 222.624C903.127 223.641 903.095 224.008 904.114 224.04C916.539 224.436 930.266 223.885 942.544 224.691C972.614 226.665 1013.65 242.227 1033.55 266.127C1066.53 296.223 1073.4 368.743 1071.41 411.687C1070.02 418.007 1055.81 448.368 1052.2 456.342L1018.77 531.675C997.836 579.278 977.23 627.389 955.7 674.681C952.033 682.74 943.14 705.808 939.691 711.611C930.901 730.922 922.899 750.342 913.731 769.461C912.058 772.962 909.814 776.86 908.333 780.207C890.438 743.322 872.114 706.642 853.374 670.173C842.571 648.721 832.274 626.992 821.394 605.627L790.138 543.153C787.99 538.883 776.667 517.395 776.142 514.411C777.276 505.274 789.516 479.039 793.683 469.654C801.569 451.909 810.064 429.539 818.88 412.421C820.752 406.488 825.715 395.853 828.337 389.853L849.585 342.167L888.323 254.137C892.58 244.493 896.907 233.326 901.216 224.101Z" fill="url(#paint3_linear_1848_4941)"/>
<path d="M818.88 412.355C820.419 415.704 821.759 415.499 821.874 415.89C827.196 433.469 833.107 463.301 837.191 479.82L875.904 642.026L887.149 691.003C888.759 698.049 911.57 762.798 913.731 769.396C922.899 750.277 904.941 788.707 913.731 769.396C912.058 772.896 909.814 776.795 908.333 780.141C890.438 743.256 872.114 706.576 853.374 670.108C842.57 648.656 832.274 626.927 821.394 605.562L790.138 543.088C787.99 538.817 776.667 517.33 776.142 514.346C777.276 505.209 789.516 478.974 793.683 469.589C801.569 451.844 810.064 429.473 818.88 412.355Z" fill="#6A32B3"/>
<path d="M728.178 782.546C733.333 781.539 896.254 781.693 899.825 782.546C899.927 782.501 738.269 783.834 728.178 782.546Z" fill="#89ECF9" fill-opacity="0.0117647"/>
<path d="M168.894 782.524C176.226 781.71 195.828 782.088 204.178 782.165C216.977 782.293 236.09 781.543 248.433 782.524C237.566 783.441 220.131 782.845 208.475 782.883C197.773 782.915 179.027 783.383 168.894 782.524Z" fill="#89ECF9" fill-opacity="0.0117647"/>
<defs>
<linearGradient id="paint0_linear_1848_4941" x1="296.292" y1="891.316" x2="211.521" y2="34.441" gradientUnits="userSpaceOnUse">
<stop stop-color="white"/>
<stop offset="1" stop-color="#8943E3"/>
</linearGradient>
<linearGradient id="paint1_linear_1848_4941" x1="358.222" y1="562.163" x2="285.622" y2="780.53" gradientUnits="userSpaceOnUse">
<stop stop-color="white"/>
<stop offset="1" stop-color="#8943E3"/>
</linearGradient>
<linearGradient id="paint2_linear_1848_4941" x1="683.507" y1="161.179" x2="927.128" y2="80.2263" gradientUnits="userSpaceOnUse">
<stop stop-color="white"/>
<stop offset="1" stop-color="#8943E3"/>
</linearGradient>
<linearGradient id="paint3_linear_1848_4941" x1="983.662" y1="189.473" x2="923.885" y2="780.207" gradientUnits="userSpaceOnUse">
<stop stop-color="white"/>
<stop offset="1" stop-color="#8943E3"/>
</linearGradient>
</defs>
</svg>
