<svg width="501" height="121" viewBox="0 0 501 121" fill="none" xmlns="http://www.w3.org/2000/svg">
<g clip-path="url(#clip0_1848_4816)">
<path d="M25.5098 23.7277C25.7237 23.5663 25.8491 23.5212 26.1222 23.5101C27.2264 23.4651 28.3697 23.4909 29.4751 23.4972L35.2875 23.5182C37.2961 23.5244 39.3122 23.4942 41.3184 23.5184C42.2488 23.5296 43.5418 23.5288 44.4433 23.6527C47.3806 24.0588 50.0322 25.6263 51.8041 28.0039C53.038 29.6424 53.7852 31.3823 54.6944 33.1829L57.9544 39.6455L69.509 62.5122L72.9724 69.4015C73.4721 70.3876 73.9355 71.4191 74.4973 72.3668C74.5478 72.6532 75.6346 74.7156 75.8407 75.1255L78.8407 81.1219C79.885 83.1726 80.8733 85.2581 81.9103 87.3172C83.7091 90.8175 85.4678 94.3382 87.1854 97.8785C86.9644 97.956 86.4118 97.9868 86.1583 97.9874C82.5484 97.9923 78.93 97.9732 75.3207 97.9739L70.6992 97.9843C68.4782 97.9763 67.4967 97.9782 65.3631 97.1222C63.4105 96.3339 61.7293 94.9948 60.525 93.268C60.0767 92.6378 59.625 91.8618 59.2694 91.1683C56.5815 85.9246 53.9815 80.6352 51.3347 75.3708L42.559 57.9003L39.9949 52.7919C39.4902 51.8005 38.7872 50.5203 38.3592 49.5216C38.2988 49.2277 37.3906 47.495 37.2179 47.1562L35.3453 43.4206L32.1847 37.0246C31.7215 36.1021 31.1592 34.9036 30.6391 34.0325L27.16 26.8986C26.7545 26.0714 26.0207 24.3641 25.5098 23.7277Z" fill="#FEFEFE"/>
<path d="M25.5062 23.7328C26.0172 24.3693 26.751 26.0765 27.1565 26.9038L30.6355 34.0377C31.1557 34.9087 31.7179 36.1072 32.1812 37.0298L35.3418 43.4258L37.2144 47.1613C37.3871 47.5002 38.2953 49.2328 38.3557 49.5267C38.0773 49.7469 36.9982 52.5753 36.8045 53.0622C35.8734 55.4034 34.7593 57.7098 33.8242 60.0396C33.4963 60.6477 33.2439 61.3183 32.9727 61.9554C30.8421 66.9602 28.4224 71.9086 26.4124 76.9621C27.7154 77.0325 29.0669 76.9834 30.3714 77.0093C33.4338 77.0701 36.6025 76.9469 39.6537 76.996C41.0257 76.9853 43.4448 76.8168 44.5989 77.3149C44.962 77.9965 45.1589 78.5121 44.8852 79.3149C44.6387 80.0379 43.7224 81.7344 43.2861 82.3235C41.7581 85.1137 40.1866 87.9008 38.5973 90.6565C37.2764 92.947 35.0465 98.0842 31.8568 97.9889C31.6303 98.011 31.363 98.0073 31.1338 98.011C28.9922 98.0461 26.8451 97.9569 24.7052 97.9636C22.0843 97.9852 19.4633 97.9919 16.8424 97.9846C15.552 97.9827 13.931 98.0535 12.6704 97.899C7.34764 97.2479 2.97518 93.7784 1.25517 88.6725C0.326978 85.926 0.190743 82.9734 0.86205 80.1529C1.22832 78.622 1.78856 77.5525 2.39295 76.1358C4.47065 71.2655 6.65459 66.4137 8.7925 61.5706L16.5106 44.1126L18.9806 38.3981C19.418 37.3781 19.9553 36.044 20.4444 35.0613C20.7712 34.391 21.0113 33.609 21.3449 32.9347C22.8235 29.9454 23.8878 26.6384 25.5062 23.7328Z" fill="url(#paint0_linear_1848_4816)"/>
<path d="M31.857 97.9819C31.2605 97.7801 31.0145 97.4594 30.4452 96.9844C30.4452 96.9844 29.3515 95.881 28.9676 95.1598C27.9015 93.1573 26.7999 91.1739 25.7788 89.1468C25.2979 88.1923 24.738 87.2613 24.3129 86.2785C24.0919 85.7788 23.93 85.2545 23.8305 84.7173C23.7436 84.2229 23.7076 83.4277 23.8288 82.9607C24.1324 81.7913 25.8473 77.7662 26.4127 76.9551C27.7156 77.0256 29.0672 76.9765 30.3716 77.0023C33.4341 77.0631 36.6027 76.94 39.654 76.9891C41.026 76.9783 43.445 76.8098 44.5991 77.308C44.9622 77.9896 45.1591 78.5051 44.8854 79.3079C44.639 80.031 43.7226 81.7275 43.2863 82.3166C41.7583 85.1068 40.1868 87.8939 38.5975 90.6496C37.2766 92.9401 35.0467 98.0773 31.857 97.9819Z" fill="url(#paint1_linear_1848_4816)"/>
<path d="M25.508 23.7328C26.019 24.3693 26.7528 26.0765 27.1583 26.9038L30.6374 34.0377C31.1575 34.9087 31.7198 36.1072 32.183 37.0298L35.3436 43.4258L36.3084 45.2817L38.4 49.5594C35.6923 45.6209 27.1583 37.5278 27.1583 37.5278L21.3467 32.9347C22.8253 29.9454 23.8896 26.6384 25.508 23.7328Z" fill="#6A32B3"/>
<path d="M81.5941 23.5873C85.9431 23.6274 90.3259 23.5134 94.6674 23.5616C96.5203 23.6305 98.468 23.4387 100.308 23.6416C107.691 24.4558 112.485 31.3241 112.307 38.4764C112.229 41.611 111.26 43.5059 110.012 46.2978L107.458 52.0455C106.269 54.7641 105.133 57.5196 103.877 60.2121C103.576 60.857 103.179 61.9578 102.835 62.5041L102.733 62.4198C102.503 62.3023 102.057 62.3654 102.069 62.3654C102.01 62.0966 102.19 60.6864 102.208 60.2997C102.399 56.1778 101.931 51.8105 99.2016 48.5328C97.2914 46.2389 93.3529 44.7452 90.4668 44.5557C89.2883 44.4784 87.9708 44.5312 86.7782 44.4933C86.6803 44.4902 86.6834 44.455 86.5997 44.3574L86.5 44.4991C82.3689 44.5362 78.2372 44.5455 74.1061 44.527C72.6187 44.515 71.111 44.557 69.6249 44.5277C67.1252 44.4725 67.2919 42.8062 68.2255 41.0568C69.1159 39.3892 70.1295 37.795 71.0372 36.1461C72.4409 33.5541 73.8815 30.982 75.3578 28.4307C75.9043 27.4832 76.5849 26.037 77.3523 25.2963C78.5061 24.183 79.9578 23.4764 81.5941 23.5873Z" fill="#FEFEFE"/>
<path d="M86.5 44.5011C82.3689 44.5382 78.2372 44.5475 74.1061 44.5291C72.6187 44.5171 71.111 44.559 69.6249 44.5297C67.1252 44.4745 67.2919 42.8082 68.2255 41.0588C69.1159 39.3912 70.1295 37.797 71.0372 36.1481C72.4409 33.5561 73.8815 30.984 75.3578 28.4327C75.9043 27.4852 76.5849 26.039 77.3523 25.2983C78.5061 24.185 79.9578 23.4784 81.5941 23.5893C82.4194 24.0663 82.5726 24.5116 83.1148 25.337C83.4569 25.8344 84.2446 27.1951 84.4661 27.7219C85.6785 30.6054 89.1831 35.0741 88.9462 38.1632C88.724 40.0141 87.5548 41.7273 86.9418 43.4803C86.8551 43.7284 86.708 44.1214 86.5997 44.3594L86.5 44.5011Z" fill="url(#paint2_linear_1848_4816)"/>
<path d="M86.5011 44.504L86.6007 44.3623C86.6844 44.4599 86.6814 44.4951 86.7792 44.4982C87.9718 44.5362 89.2894 44.4833 90.4678 44.5606C93.354 44.7501 97.2925 46.2439 99.2026 48.5378C102.369 51.4265 103.027 58.3871 102.836 62.5091C102.703 63.1157 101.339 66.0298 100.993 66.7952L97.7842 74.0258C95.7749 78.5948 93.7971 83.2126 91.7306 87.7519C91.3786 88.5254 90.5251 90.7396 90.194 91.2965C89.3503 93.15 88.5823 95.014 87.7023 96.8491C87.5417 97.1851 87.3263 97.5593 87.1841 97.8805C85.4666 94.3402 83.7078 90.8196 81.909 87.3192C80.8721 85.2602 79.8838 83.1746 78.8395 81.1239L75.8395 75.1275C75.6333 74.7176 74.5466 72.6552 74.4961 72.3688C74.605 71.4918 75.7798 68.9737 76.1798 68.0729C76.9367 66.3696 77.7521 64.2225 78.5983 62.5795C78.7779 62.01 79.2543 60.9893 79.506 60.4133L81.5453 55.8364L85.2635 47.387C85.6721 46.4613 86.0875 45.3894 86.5011 44.504Z" fill="url(#paint3_linear_1848_4816)"/>
<path d="M78.5983 62.5752C78.7459 62.8966 78.8746 62.8769 78.8856 62.9145C79.3964 64.6017 79.9638 67.4651 80.3558 69.0507L84.0715 84.6196L85.1509 89.3205C85.3054 89.9968 87.4949 96.2116 87.7023 96.8449C88.5823 95.0098 86.8586 98.6984 87.7023 96.8449C87.5417 97.1809 87.3263 97.555 87.1841 97.8763C85.4666 94.3359 83.7078 90.8153 81.909 87.315C80.8721 85.2559 79.8838 83.1704 78.8395 81.1196L75.8395 75.1232C75.6333 74.7133 74.5466 72.6509 74.4961 72.3645C74.605 71.4875 75.7798 68.9694 76.1798 68.0686C76.9367 66.3654 77.7521 64.2182 78.5983 62.5752Z" fill="#6A32B3"/>
<path d="M69.8926 98.1062C70.3873 98.0096 86.0249 98.0244 86.3677 98.1062C86.3776 98.1019 70.8612 98.2299 69.8926 98.1062Z" fill="#89ECF9" fill-opacity="0.0117647"/>
<path d="M16.2119 98.1049C16.9157 98.0267 18.7972 98.063 19.5986 98.0704C20.8271 98.0827 22.6616 98.0107 23.8463 98.1049C22.8033 98.1929 21.1298 98.1356 20.011 98.1393C18.9838 98.1424 17.1845 98.1873 16.2119 98.1049Z" fill="#89ECF9" fill-opacity="0.0117647"/>
</g>
<path d="M460.33 91H453.402V32.2816H460.33V91Z" fill="white"/>
<path d="M448.392 91H441.052L434.207 73.9288H407.487L400.724 91H393.467L416.888 32.2816H424.64L448.392 91ZM410.208 67.0014L409.961 67.6611H431.733L431.403 66.9189C428.846 60.5687 424.228 48.858 420.682 39.7864C417.301 48.858 412.765 60.5687 410.208 67.0014Z" fill="white"/>
<path d="M388.485 91H380.155V82.7531H388.485V91Z" fill="white"/>
<path d="M356.912 47.4559C366.808 47.4559 371.509 53.8886 371.509 62.1355V90.9999H364.911V62.7953C364.911 56.1977 361.613 53.3937 356.005 53.3937C350.644 53.3937 345.119 57.5172 345.119 67.7435V90.9999H338.521V62.7953C338.521 56.1977 335.14 53.3937 329.614 53.3937C324.419 53.3937 318.728 57.5172 318.728 67.7435V90.9999H312.131V48.4456H318.399V54.7133C320.955 50.3424 324.996 47.4559 330.687 47.4559C337.449 47.4559 341.737 50.7547 343.799 55.4555C346.438 50.7547 350.892 47.4559 356.912 47.4559Z" fill="white"/>
<path d="M295.633 72.5267V48.4456H302.231V90.9999H295.963V84.6497C293.159 88.9382 288.541 91.9896 282.603 91.9896C273.119 91.9896 267.594 86.629 267.594 77.2275V48.4456H274.191V76.5677C274.191 83.1653 277.82 86.0517 283.923 86.0517C289.448 86.0517 295.633 81.9282 295.633 72.5267Z" fill="white"/>
<path d="M262.609 48.4456L247.187 69.2279L263.434 90.9999H255.682L253.372 87.7836C249.991 83.0004 246.61 78.2996 243.394 73.9287C240.095 78.3821 236.549 83.1653 233.25 87.8661L231.023 90.9999H223.354L239.6 69.2279L224.178 48.4456H231.93L235.229 52.9814C238.033 56.775 240.837 60.6511 243.476 64.5271C246.198 60.6511 249.084 56.6101 251.723 52.9814L254.939 48.4456H262.609Z" fill="white"/>
<path d="M203.983 91.9896C192.355 91.9896 184.19 83.4952 184.19 69.7227C184.19 56.3627 192.025 47.4559 203.818 47.4559C216.519 47.4559 223.364 57.5172 223.364 69.7227V72.0319H191.035C191.695 81.5984 196.726 85.9693 204.148 85.9693C210.168 85.9693 213.962 82.8354 215.446 78.0522H222.291C220.23 86.0517 214.127 91.9896 203.983 91.9896ZM191.2 66.0941H216.271C215.611 59.0842 211.405 53.4762 203.818 53.4762C197.138 53.4762 192.272 57.6822 191.2 66.0941Z" fill="white"/>
<path d="M169.074 52.0743V32.2816H175.919V91H167.507L148.044 60.7337C144.003 54.3835 139.055 46.5489 135.839 40.8585C136.086 52.4042 136.086 63.2902 136.086 71.2073V91H129.241V32.2816H137.653L157.116 62.548C161.157 68.8982 166.105 76.7328 169.321 82.4232C169.074 70.8774 169.074 59.9914 169.074 52.0743Z" fill="white"/>
<path d="M495.021 41.0631L498.555 32.3284H500.999V48.1532H499.177V43.0857C499.177 40.9742 499.177 38.0849 499.244 35.0177C498.821 36.1957 498.399 37.2625 497.843 38.6183L493.932 48.1532H492.331L488.397 38.6183C487.842 37.2625 487.419 36.1957 486.997 35.0177C487.064 38.0849 487.064 40.9742 487.064 43.0857V48.1532H485.241V32.3284H487.686L491.353 41.3298C491.998 42.8857 492.687 44.6637 493.154 45.8862C493.643 44.597 494.376 42.6189 495.021 41.0631Z" fill="white"/>
<path d="M470.653 32.3284H483.344V34.0175H477.966V48.1532H476.032V34.0175H470.653V32.3284Z" fill="white"/>
<defs>
<linearGradient id="paint0_linear_1848_4816" x1="28.4398" y1="108.548" x2="20.3033" y2="26.3034" gradientUnits="userSpaceOnUse">
<stop stop-color="white"/>
<stop offset="1" stop-color="#8943E3"/>
</linearGradient>
<linearGradient id="paint1_linear_1848_4816" x1="34.3823" y1="76.9531" x2="27.4139" y2="97.9126" gradientUnits="userSpaceOnUse">
<stop stop-color="white"/>
<stop offset="1" stop-color="#8943E3"/>
</linearGradient>
<linearGradient id="paint2_linear_1848_4816" x1="65.6055" y1="38.4654" x2="88.989" y2="30.6954" gradientUnits="userSpaceOnUse">
<stop stop-color="white"/>
<stop offset="1" stop-color="#8943E3"/>
</linearGradient>
<linearGradient id="paint3_linear_1848_4816" x1="94.4144" y1="41.1804" x2="88.6768" y2="97.8805" gradientUnits="userSpaceOnUse">
<stop stop-color="white"/>
<stop offset="1" stop-color="#8943E3"/>
</linearGradient>
<clipPath id="clip0_1848_4816">
<rect width="112.739" height="75.3233" fill="white" transform="translate(0 22.9971)"/>
</clipPath>
</defs>
</svg>
